<svg width="822.65498046875px" height="131.60498046875px" xmlns="http://www.w3.org/2000/svg" viewBox="-161.32749023437498 9.197509765625 822.65498046875 131.60498046875" style="background: rgb(46, 53, 61);" preserveAspectRatio="xMidYMid"><defs><linearGradient id="editing-glowing-gradient" x1="0.9667902132486008" x2="0.03320978675139913" y1="0.6791839747726502" y2="0.32081602522734975"><stop offset="0" stop-color="#ff4f4f"></stop><stop offset="1" stop-color="#5edbff"></stop></linearGradient><filter id="editing-glowing" x="-100%" y="-100%" width="300%" height="300%"><feGaussianBlur in="SourceGraphic" result="blur" stdDeviation="10"></feGaussianBlur><feMerge><feMergeNode in="blur"></feMergeNode><feMergeNode in="SourceGraphic"></feMergeNode></feMerge></filter></defs><g filter="url(#editing-glowing)"><g transform="translate(-45.48501443862915, 106.36000061035156)"><path d="M41.78-26.50L41.78-18.31L16.09-18.31L16.09-26.50L41.78-26.50ZM45.41-44.81L45.41-36.69L12.84-36.69L12.84 0L4.72 0L4.72-40.72L4.72-40.72Q4.72-41.56 5.03-42.31L5.03-42.31L5.03-42.31Q5.34-43.06 5.89-43.63L5.89-43.63L5.89-43.63Q6.44-44.19 7.19-44.50L7.19-44.50L7.19-44.50Q7.94-44.81 8.81-44.81L8.81-44.81L45.41-44.81ZM65.91-8.13L65.91 0L62.28 0L62.28 0Q60.53 0 58.55-0.59L58.55-0.59L58.55-0.59Q56.56-1.19 54.84-2.55L54.84-2.55L54.84-2.55Q53.13-3.91 52-6.08L52-6.08L52-6.08Q50.88-8.25 50.88-11.41L50.88-11.41L50.88-48.06L59-48.06L59-11.41L59-11.41Q59-9.91 59.94-9.02L59.94-9.02L59.94-9.02Q60.88-8.13 62.28-8.13L62.28-8.13L65.91-8.13ZM79.38-48.06L79.38-40.72L71.25-40.72L71.25-48.06L79.38-48.06ZM79.38-33.78L79.38 0L71.25 0L71.25-33.78L79.38-33.78ZM123.91-22.41L123.91 3.25L123.91 3.25Q123.91 5.34 123.38 7.02L123.38 7.02L123.38 7.02Q122.84 8.69 121.97 9.95L121.97 9.95L121.97 9.95Q121.09 11.22 119.94 12.11L119.94 12.11L119.94 12.11Q118.78 13 117.52 13.56L117.52 13.56L117.52 13.56Q116.25 14.13 114.95 14.39L114.95 14.39L114.95 14.39Q113.66 14.66 112.50 14.66L112.50 14.66L97.84 14.66L97.84 6.53L112.50 6.53L112.50 6.53Q114.16 6.53 114.97 5.69L114.97 5.69L114.97 5.69Q115.78 4.84 115.78 3.25L115.78 3.25L115.78-22.41L115.78-22.41Q115.78-24 114.97-24.83L114.97-24.83L114.97-24.83Q114.16-25.66 112.50-25.66L112.50-25.66L97.84-25.66L97.84-25.66Q96.34-25.66 95.47-24.73L95.47-24.73L95.47-24.73Q94.59-23.81 94.59-22.41L94.59-22.41L94.59-11.41L94.59-11.41Q94.59-9.81 95.44-8.97L95.44-8.97L95.44-8.97Q96.28-8.13 97.91-8.13L97.91-8.13L112.50-8.13L112.50 0L97.84 0L97.84 0Q96.69 0 95.41-0.27L95.41-0.27L95.41-0.27Q94.13-0.53 92.86-1.09L92.86-1.09L92.86-1.09Q91.59-1.66 90.44-2.55L90.44-2.55L90.44-2.55Q89.28-3.44 88.41-4.70L88.41-4.70L88.41-4.70Q87.53-5.97 87-7.64L87-7.64L87-7.64Q86.47-9.31 86.47-11.41L86.47-11.41L86.47-22.41L86.47-22.41Q86.47-23.56 86.73-24.84L86.73-24.84L86.73-24.84Q87-26.13 87.56-27.39L87.56-27.39L87.56-27.39Q88.13-28.66 89.02-29.81L89.02-29.81L89.02-29.81Q89.91-30.97 91.17-31.84L91.17-31.84L91.17-31.84Q92.44-32.72 94.09-33.25L94.09-33.25L94.09-33.25Q95.75-33.78 97.84-33.78L97.84-33.78L112.50-33.78L112.50-33.78Q113.66-33.78 114.95-33.52L114.95-33.52L114.95-33.52Q116.25-33.25 117.52-32.69L117.52-32.69L117.52-32.69Q118.78-32.13 119.94-31.23L119.94-31.23L119.94-31.23Q121.09-30.34 121.97-29.08L121.97-29.08L121.97-29.08Q122.84-27.81 123.38-26.16L123.38-26.16L123.38-26.16Q123.91-24.50 123.91-22.41L123.91-22.41ZM168.91-22.41L168.91 0L160.78 0L160.78-22.41L160.78-22.41Q160.78-24 159.97-24.83L159.97-24.83L159.97-24.83Q159.16-25.66 157.53-25.66L157.53-25.66L142.88-25.66L142.88-33.78L157.53-33.78L157.53-33.78Q158.69-33.78 159.97-33.52L159.97-33.52L159.97-33.52Q161.25-33.25 162.52-32.69L162.52-32.69L162.52-32.69Q163.78-32.13 164.94-31.23L164.94-31.23L164.94-31.23Q166.09-30.34 166.97-29.08L166.97-29.08L166.97-29.08Q167.84-27.81 168.38-26.16L168.38-26.16L168.38-26.16Q168.91-24.50 168.91-22.41L168.91-22.41ZM139.59-48.06L139.59 0L131.47 0L131.47-48.06L139.59-48.06ZM206.88-33.78L206.88-25.66L192.69-25.66L192.69 0L184.47 0L184.47-25.66L173.91-25.66L173.91-33.78L184.47-33.78L184.47-44.81L192.69-44.81L192.69-33.78L206.88-33.78ZM277.91-40.72L277.91 0L269.78 0L269.78-11L241.22-11L241.22 0L233.09 0L233.09-22.41L233.09-22.41Q233.09-27.31 234.78-31.44L234.78-31.44L234.78-31.44Q236.47-35.56 239.47-38.53L239.47-38.53L239.47-38.53Q242.47-41.50 246.56-43.16L246.56-43.16L246.56-43.16Q250.66-44.81 255.50-44.81L255.50-44.81L273.81-44.81L273.81-44.81Q274.66-44.81 275.41-44.50L275.41-44.50L275.41-44.50Q276.16-44.19 276.72-43.63L276.72-43.63L276.72-43.63Q277.28-43.06 277.59-42.31L277.59-42.31L277.59-42.31Q277.91-41.56 277.91-40.72L277.91-40.72ZM241.22-22.41L241.22-19.13L269.78-19.13L269.78-36.69L255.50-36.69L255.50-36.69Q255.13-36.69 253.92-36.58L253.92-36.58L253.92-36.58Q252.72-36.47 251.14-36.03L251.14-36.03L251.14-36.03Q249.56-35.59 247.81-34.69L247.81-34.69L247.81-34.69Q246.06-33.78 244.59-32.19L244.59-32.19L244.59-32.19Q243.13-30.59 242.17-28.20L242.17-28.20L242.17-28.20Q241.22-25.81 241.22-22.41L241.22-22.41ZM318.97-8.13L318.97 0L296.94 0L296.94 0Q295.25 0 293.25-0.59L293.25-0.59L293.25-0.59Q291.25-1.19 289.55-2.55L289.55-2.55L289.55-2.55Q287.84-3.91 286.70-6.08L286.70-6.08L286.70-6.08Q285.56-8.25 285.56-11.41L285.56-11.41L285.56-22.41L285.56-22.41Q285.56-23.56 285.83-24.84L285.83-24.84L285.83-24.84Q286.09-26.13 286.66-27.39L286.66-27.39L286.66-27.39Q287.22-28.66 288.11-29.81L288.11-29.81L288.11-29.81Q289-30.97 290.27-31.84L290.27-31.84L290.27-31.84Q291.53-32.72 293.19-33.25L293.19-33.25L293.19-33.25Q294.84-33.78 296.94-33.78L296.94-33.78L318.97-33.78L318.97-25.66L296.94-25.66L296.94-25.66Q295.34-25.66 294.52-24.84L294.52-24.84L294.52-24.84Q293.69-24.03 293.69-22.34L293.69-22.34L293.69-11.41L293.69-11.41Q293.69-9.81 294.53-8.97L294.53-8.97L294.53-8.97Q295.38-8.13 297-8.13L297-8.13L318.97-8.13ZM358.16-8.13L358.16 0L336.13 0L336.13 0Q334.44 0 332.44-0.59L332.44-0.59L332.44-0.59Q330.44-1.19 328.73-2.55L328.73-2.55L328.73-2.55Q327.03-3.91 325.89-6.08L325.89-6.08L325.89-6.08Q324.75-8.25 324.75-11.41L324.75-11.41L324.75-22.41L324.75-22.41Q324.75-23.56 325.02-24.84L325.02-24.84L325.02-24.84Q325.28-26.13 325.84-27.39L325.84-27.39L325.84-27.39Q326.41-28.66 327.30-29.81L327.30-29.81L327.30-29.81Q328.19-30.97 329.45-31.84L329.45-31.84L329.45-31.84Q330.72-32.72 332.38-33.25L332.38-33.25L332.38-33.25Q334.03-33.78 336.13-33.78L336.13-33.78L358.16-33.78L358.16-25.66L336.13-25.66L336.13-25.66Q334.53-25.66 333.70-24.84L333.70-24.84L333.70-24.84Q332.88-24.03 332.88-22.34L332.88-22.34L332.88-11.41L332.88-11.41Q332.88-9.81 333.72-8.97L333.72-8.97L333.72-8.97Q334.56-8.13 336.19-8.13L336.19-8.13L358.16-8.13ZM399.53-22.59L399.53-11.19L399.53-11.19Q399.53-9.50 398.94-7.55L398.94-7.55L398.94-7.55Q398.34-5.59 397.02-3.92L397.02-3.92L397.02-3.92Q395.69-2.25 393.55-1.13L393.55-1.13L393.55-1.13Q391.41 0 388.34 0L388.34 0L373.69 0L373.69 0Q372 0 370.05-0.59L370.05-0.59L370.05-0.59Q368.09-1.19 366.42-2.52L366.42-2.52L366.42-2.52Q364.75-3.84 363.63-5.98L363.63-5.98L363.63-5.98Q362.50-8.13 362.50-11.19L362.50-11.19L362.50-11.19Q362.50-12.88 363.09-14.84L363.09-14.84L363.09-14.84Q363.69-16.81 365.02-18.48L365.02-18.48L365.02-18.48Q366.34-20.16 368.48-21.28L368.48-21.28L368.48-21.28Q370.63-22.41 373.69-22.41L373.69-22.41L388.34-22.41L388.34-14.66L373.69-14.66L373.69-14.66Q372.03-14.66 371.13-13.64L371.13-13.64L371.13-13.64Q370.22-12.63 370.22-11.13L370.22-11.13L370.22-11.13Q370.22-9.53 371.27-8.64L371.27-8.64L371.27-8.64Q372.31-7.75 373.75-7.75L373.75-7.75L388.34-7.75L388.34-7.75Q390-7.75 390.91-8.75L390.91-8.75L390.91-8.75Q391.81-9.75 391.81-11.25L391.81-11.25L391.81-22.59L391.81-22.59Q391.81-24.19 390.83-25.13L390.83-25.13L390.83-25.13Q389.84-26.06 388.34-26.06L388.34-26.06L370.50-26.06L370.50-33.78L388.34-33.78L388.34-33.78Q390.03-33.78 391.98-33.19L391.98-33.19L391.98-33.19Q393.94-32.59 395.61-31.27L395.61-31.27L395.61-31.27Q397.28-29.94 398.41-27.80L398.41-27.80L398.41-27.80Q399.53-25.66 399.53-22.59L399.53-22.59ZM443.53-48.06L443.53-11.41L443.53-11.41Q443.53-9.31 443-7.64L443-7.64L443-7.64Q442.47-5.97 441.59-4.70L441.59-4.70L441.59-4.70Q440.72-3.44 439.56-2.55L439.56-2.55L439.56-2.55Q438.41-1.66 437.14-1.09L437.14-1.09L437.14-1.09Q435.88-0.53 434.58-0.27L434.58-0.27L434.58-0.27Q433.28 0 432.13 0L432.13 0L417.47 0L417.47 0Q415.38 0 413.72-0.53L413.72-0.53L413.72-0.53Q412.06-1.06 410.80-1.95L410.80-1.95L410.80-1.95Q409.53-2.84 408.64-4L408.64-4L408.64-4Q407.75-5.16 407.19-6.42L407.19-6.42L407.19-6.42Q406.63-7.69 406.36-8.98L406.36-8.98L406.36-8.98Q406.09-10.28 406.09-11.41L406.09-11.41L406.09-22.41L406.09-22.41Q406.09-25.53 407.23-27.70L407.23-27.70L407.23-27.70Q408.38-29.88 410.08-31.23L410.08-31.23L410.08-31.23Q411.78-32.59 413.78-33.19L413.78-33.19L413.78-33.19Q415.78-33.78 417.47-33.78L417.47-33.78L432.13-33.78L432.13-25.66L417.53-25.66L417.53-25.66Q415.91-25.66 415.06-24.83L415.06-24.83L415.06-24.83Q414.22-24 414.22-22.41L414.22-22.41L414.22-11.47L414.22-11.47Q414.22-9.81 415.05-8.97L415.05-8.97L415.05-8.97Q415.88-8.13 417.47-8.13L417.47-8.13L432.13-8.13L432.13-8.13Q433.78-8.13 434.59-8.97L434.59-8.97L434.59-8.97Q435.41-9.81 435.41-11.41L435.41-11.41L435.41-48.06L443.53-48.06ZM487.63-22.59L487.63-22.59L487.63-22.59Q487.63-20.91 487.03-18.95L487.03-18.95L487.03-18.95Q486.44-17 485.11-15.33L485.11-15.33L485.11-15.33Q483.78-13.66 481.64-12.53L481.64-12.53L481.64-12.53Q479.50-11.41 476.44-11.41L476.44-11.41L461.78-11.41L461.78-19.13L476.44-19.13L476.44-19.13Q478.09-19.13 479-20.14L479-20.14L479-20.14Q479.91-21.16 479.91-22.66L479.91-22.66L479.91-22.66Q479.91-24.25 478.89-25.16L478.89-25.16L478.89-25.16Q477.88-26.06 476.44-26.06L476.44-26.06L461.78-26.06L461.78-26.06Q460.13-26.06 459.22-25.05L459.22-25.05L459.22-25.05Q458.31-24.03 458.31-22.53L458.31-22.53L458.31-11.19L458.31-11.19Q458.31-9.56 459.33-8.66L459.33-8.66L459.33-8.66Q460.34-7.75 461.84-7.75L461.84-7.75L476.44-7.75L476.44 0L461.78 0L461.78 0Q460.09 0 458.14-0.59L458.14-0.59L458.14-0.59Q456.19-1.19 454.52-2.52L454.52-2.52L454.52-2.52Q452.84-3.84 451.72-5.98L451.72-5.98L451.72-5.98Q450.59-8.13 450.59-11.19L450.59-11.19L450.59-22.59L450.59-22.59Q450.59-24.28 451.19-26.23L451.19-26.23L451.19-26.23Q451.78-28.19 453.11-29.86L453.11-29.86L453.11-29.86Q454.44-31.53 456.58-32.66L456.58-32.66L456.58-32.66Q458.72-33.78 461.78-33.78L461.78-33.78L476.44-33.78L476.44-33.78Q478.13-33.78 480.08-33.19L480.08-33.19L480.08-33.19Q482.03-32.59 483.70-31.27L483.70-31.27L483.70-31.27Q485.38-29.94 486.50-27.80L486.50-27.80L486.50-27.80Q487.63-25.66 487.63-22.59ZM523.25-22.41L523.25 0L515.13 0L515.13-22.41L515.13-22.41Q515.13-24 514.28-24.83L514.28-24.83L514.28-24.83Q513.44-25.66 511.78-25.66L511.78-25.66L501.22-25.66L501.22 0L493.09 0L493.09-29.75L493.09-29.75Q493.09-30.59 493.41-31.33L493.41-31.33L493.41-31.33Q493.72-32.06 494.28-32.61L494.28-32.61L494.28-32.61Q494.84-33.16 495.59-33.47L495.59-33.47L495.59-33.47Q496.34-33.78 497.19-33.78L497.19-33.78L511.84-33.78L511.84-33.78Q513.53-33.78 515.47-33.19L515.47-33.19L515.47-33.19Q517.41-32.59 519.16-31.28L519.16-31.28L519.16-33.78L530.16-33.78L530.16-33.78Q531.31-33.78 532.59-33.52L532.59-33.52L532.59-33.52Q533.88-33.25 535.14-32.69L535.14-32.69L535.14-32.69Q536.41-32.13 537.56-31.23L537.56-31.23L537.56-31.23Q538.72-30.34 539.59-29.08L539.59-29.08L539.59-29.08Q540.47-27.81 541-26.16L541-26.16L541-26.16Q541.53-24.50 541.53-22.41L541.53-22.41L541.53 0L533.41 0L533.41-22.41L533.41-22.41Q533.41-24 532.61-24.83L532.61-24.83L532.61-24.83Q531.81-25.66 530.16-25.66L530.16-25.66L522.84-25.66L522.84-25.66Q523.25-24.16 523.25-22.41L523.25-22.41ZM586.25-33.78L586.25 3.25L586.25 3.25Q586.25 5.34 585.72 7.02L585.72 7.02L585.72 7.02Q585.19 8.69 584.31 9.95L584.31 9.95L584.31 9.95Q583.44 11.22 582.28 12.11L582.28 12.11L582.28 12.11Q581.13 13 579.86 13.56L579.86 13.56L579.86 13.56Q578.59 14.13 577.31 14.39L577.31 14.39L577.31 14.39Q576.03 14.66 574.88 14.66L574.88 14.66L560.22 14.66L560.22 6.53L574.88 6.53L574.88 6.53Q576.50 6.53 577.31 5.69L577.31 5.69L577.31 5.69Q578.13 4.84 578.13 3.25L578.13 3.25L578.13-33.78L586.25-33.78ZM574.88-8.13L574.88 0L560.22 0L560.22 0Q558.47 0 556.48-0.59L556.48-0.59L556.48-0.59Q554.50-1.19 552.78-2.55L552.78-2.55L552.78-2.55Q551.06-3.91 549.94-6.08L549.94-6.08L549.94-6.08Q548.81-8.25 548.81-11.41L548.81-11.41L548.81-33.78L556.94-33.78L556.94-11.41L556.94-11.41Q556.94-9.81 557.78-8.97L557.78-8.97L557.78-8.97Q558.63-8.13 560.28-8.13L560.28-8.13L574.88-8.13Z" fill="url(#editing-glowing-gradient)"></path></g></g><style>text {
  font-size: 64px;
  font-family: Arial Black;
  dominant-baseline: central;
  text-anchor: middle;
}</style></svg>