<svg width="905.2750244140625px" height="131.6052734375px" xmlns="http://www.w3.org/2000/svg" viewBox="-202.63751220703125 9.197363281250006 905.2750244140625 131.6052734375" style="background: rgb(46, 53, 61);" preserveAspectRatio="xMidYMid"><defs><linearGradient id="editing-glowing-gradient" x1="0.883022221559489" x2="0.11697777844051105" y1="0.17860619515673026" y2="0.8213938048432697"><stop offset="0" stop-color="#aa811e"></stop><stop offset="1" stop-color="#ebdaa2"></stop></linearGradient><filter id="editing-glowing" x="-100%" y="-100%" width="300%" height="300%"><feGaussianBlur in="SourceGraphic" result="blur" stdDeviation="10"></feGaussianBlur><feMerge><feMergeNode in="blur"></feMergeNode><feMergeNode in="SourceGraphic"></feMergeNode></feMerge></filter></defs><g filter="url(#editing-glowing)"><g transform="translate(-75.61001443862915, 106.36000061035156)"><path d="M41.78-26.50L41.78-18.31L16.09-18.31L16.09-26.50L41.78-26.50ZM45.41-44.81L45.41-36.69L12.84-36.69L12.84 0L4.72 0L4.72-40.72L4.72-40.72Q4.72-41.56 5.03-42.31L5.03-42.31L5.03-42.31Q5.34-43.06 5.89-43.63L5.89-43.63L5.89-43.63Q6.44-44.19 7.19-44.50L7.19-44.50L7.19-44.50Q7.94-44.81 8.81-44.81L8.81-44.81L45.41-44.81ZM65.91-8.13L65.91 0L62.28 0L62.28 0Q60.53 0 58.55-0.59L58.55-0.59L58.55-0.59Q56.56-1.19 54.84-2.55L54.84-2.55L54.84-2.55Q53.13-3.91 52-6.08L52-6.08L52-6.08Q50.88-8.25 50.88-11.41L50.88-11.41L50.88-48.06L59-48.06L59-11.41L59-11.41Q59-9.91 59.94-9.02L59.94-9.02L59.94-9.02Q60.88-8.13 62.28-8.13L62.28-8.13L65.91-8.13ZM79.38-48.06L79.38-40.72L71.25-40.72L71.25-48.06L79.38-48.06ZM79.38-33.78L79.38 0L71.25 0L71.25-33.78L79.38-33.78ZM123.91-22.41L123.91 3.25L123.91 3.25Q123.91 5.34 123.38 7.02L123.38 7.02L123.38 7.02Q122.84 8.69 121.97 9.95L121.97 9.95L121.97 9.95Q121.09 11.22 119.94 12.11L119.94 12.11L119.94 12.11Q118.78 13 117.52 13.56L117.52 13.56L117.52 13.56Q116.25 14.13 114.95 14.39L114.95 14.39L114.95 14.39Q113.66 14.66 112.50 14.66L112.50 14.66L97.84 14.66L97.84 6.53L112.50 6.53L112.50 6.53Q114.16 6.53 114.97 5.69L114.97 5.69L114.97 5.69Q115.78 4.84 115.78 3.25L115.78 3.25L115.78-22.41L115.78-22.41Q115.78-24 114.97-24.83L114.97-24.83L114.97-24.83Q114.16-25.66 112.50-25.66L112.50-25.66L97.84-25.66L97.84-25.66Q96.34-25.66 95.47-24.73L95.47-24.73L95.47-24.73Q94.59-23.81 94.59-22.41L94.59-22.41L94.59-11.41L94.59-11.41Q94.59-9.81 95.44-8.97L95.44-8.97L95.44-8.97Q96.28-8.13 97.91-8.13L97.91-8.13L112.50-8.13L112.50 0L97.84 0L97.84 0Q96.69 0 95.41-0.27L95.41-0.27L95.41-0.27Q94.13-0.53 92.86-1.09L92.86-1.09L92.86-1.09Q91.59-1.66 90.44-2.55L90.44-2.55L90.44-2.55Q89.28-3.44 88.41-4.70L88.41-4.70L88.41-4.70Q87.53-5.97 87-7.64L87-7.64L87-7.64Q86.47-9.31 86.47-11.41L86.47-11.41L86.47-22.41L86.47-22.41Q86.47-23.56 86.73-24.84L86.73-24.84L86.73-24.84Q87-26.13 87.56-27.39L87.56-27.39L87.56-27.39Q88.13-28.66 89.02-29.81L89.02-29.81L89.02-29.81Q89.91-30.97 91.17-31.84L91.17-31.84L91.17-31.84Q92.44-32.72 94.09-33.25L94.09-33.25L94.09-33.25Q95.75-33.78 97.84-33.78L97.84-33.78L112.50-33.78L112.50-33.78Q113.66-33.78 114.95-33.52L114.95-33.52L114.95-33.52Q116.25-33.25 117.52-32.69L117.52-32.69L117.52-32.69Q118.78-32.13 119.94-31.23L119.94-31.23L119.94-31.23Q121.09-30.34 121.97-29.08L121.97-29.08L121.97-29.08Q122.84-27.81 123.38-26.16L123.38-26.16L123.38-26.16Q123.91-24.50 123.91-22.41L123.91-22.41ZM168.91-22.41L168.91 0L160.78 0L160.78-22.41L160.78-22.41Q160.78-24 159.97-24.83L159.97-24.83L159.97-24.83Q159.16-25.66 157.53-25.66L157.53-25.66L142.88-25.66L142.88-33.78L157.53-33.78L157.53-33.78Q158.69-33.78 159.97-33.52L159.97-33.52L159.97-33.52Q161.25-33.25 162.52-32.69L162.52-32.69L162.52-32.69Q163.78-32.13 164.94-31.23L164.94-31.23L164.94-31.23Q166.09-30.34 166.97-29.08L166.97-29.08L166.97-29.08Q167.84-27.81 168.38-26.16L168.38-26.16L168.38-26.16Q168.91-24.50 168.91-22.41L168.91-22.41ZM139.59-48.06L139.59 0L131.47 0L131.47-48.06L139.59-48.06ZM206.88-33.78L206.88-25.66L192.69-25.66L192.69 0L184.47 0L184.47-25.66L173.91-25.66L173.91-33.78L184.47-33.78L184.47-44.81L192.69-44.81L192.69-33.78L206.88-33.78ZM263.25-33.78L263.25-25.66L249.06-25.66L249.06 0L240.84 0L240.84-25.66L230.28-25.66L230.28-33.78L240.84-33.78L240.84-44.81L249.06-44.81L249.06-33.78L263.25-33.78ZM304.81-22.59L304.81-22.59L304.81-22.59Q304.81-20.91 304.22-18.95L304.22-18.95L304.22-18.95Q303.63-17 302.30-15.33L302.30-15.33L302.30-15.33Q300.97-13.66 298.83-12.53L298.83-12.53L298.83-12.53Q296.69-11.41 293.63-11.41L293.63-11.41L278.97-11.41L278.97-19.13L293.63-19.13L293.63-19.13Q295.28-19.13 296.19-20.14L296.19-20.14L296.19-20.14Q297.09-21.16 297.09-22.66L297.09-22.66L297.09-22.66Q297.09-24.25 296.08-25.16L296.08-25.16L296.08-25.16Q295.06-26.06 293.63-26.06L293.63-26.06L278.97-26.06L278.97-26.06Q277.31-26.06 276.41-25.05L276.41-25.05L276.41-25.05Q275.50-24.03 275.50-22.53L275.50-22.53L275.50-11.19L275.50-11.19Q275.50-9.56 276.52-8.66L276.52-8.66L276.52-8.66Q277.53-7.75 279.03-7.75L279.03-7.75L293.63-7.75L293.63 0L278.97 0L278.97 0Q277.28 0 275.33-0.59L275.33-0.59L275.33-0.59Q273.38-1.19 271.70-2.52L271.70-2.52L271.70-2.52Q270.03-3.84 268.91-5.98L268.91-5.98L268.91-5.98Q267.78-8.13 267.78-11.19L267.78-11.19L267.78-22.59L267.78-22.59Q267.78-24.28 268.38-26.23L268.38-26.23L268.38-26.23Q268.97-28.19 270.30-29.86L270.30-29.86L270.30-29.86Q271.63-31.53 273.77-32.66L273.77-32.66L273.77-32.66Q275.91-33.78 278.97-33.78L278.97-33.78L293.63-33.78L293.63-33.78Q295.31-33.78 297.27-33.19L297.27-33.19L297.27-33.19Q299.22-32.59 300.89-31.27L300.89-31.27L300.89-31.27Q302.56-29.94 303.69-27.80L303.69-27.80L303.69-27.80Q304.81-25.66 304.81-22.59ZM342.94-11.41L342.94-11.41L342.94-11.41Q342.94-9.31 342.41-7.64L342.41-7.64L342.41-7.64Q341.88-5.97 341-4.70L341-4.70L341-4.70Q340.13-3.44 338.97-2.55L338.97-2.55L338.97-2.55Q337.81-1.66 336.55-1.09L336.55-1.09L336.55-1.09Q335.28-0.53 333.98-0.27L333.98-0.27L333.98-0.27Q332.69 0 331.53 0L331.53 0L309.53 0L309.53-8.13L331.47-8.13L331.47-8.13Q333.13-8.13 333.97-8.97L333.97-8.97L333.97-8.97Q334.81-9.81 334.81-11.41L334.81-11.41L334.81-11.41Q334.66-14.66 331.53-14.66L331.53-14.66L318.94-14.66L318.94-14.66Q316.25-14.66 314.38-15.59L314.38-15.59L314.38-15.59Q312.50-16.53 311.33-17.94L311.33-17.94L311.33-17.94Q310.16-19.34 309.64-20.97L309.64-20.97L309.64-20.97Q309.13-22.59 309.13-24L309.13-24L309.13-24Q309.13-26.72 310.09-28.58L310.09-28.58L310.09-28.58Q311.06-30.44 312.53-31.59L312.53-31.59L312.53-31.59Q314-32.75 315.72-33.27L315.72-33.27L315.72-33.27Q317.44-33.78 318.94-33.78L318.94-33.78L338.91-33.78L338.91-25.66L319-25.66L319-25.66Q318.38-25.66 318.02-25.52L318.02-25.52L318.02-25.52Q317.66-25.38 317.48-25.14L317.48-25.14L317.48-25.14Q317.31-24.91 317.28-24.64L317.28-24.64L317.28-24.64Q317.25-24.38 317.25-24.13L317.25-24.13L317.25-24.13Q317.28-23.63 317.44-23.34L317.44-23.34L317.44-23.34Q317.59-23.06 317.83-22.94L317.83-22.94L317.83-22.94Q318.06-22.81 318.36-22.80L318.36-22.80L318.36-22.80Q318.66-22.78 318.94-22.78L318.94-22.78L331.53-22.78L331.53-22.78Q334.66-22.78 336.84-21.66L336.84-21.66L336.84-21.66Q339.03-20.53 340.38-18.83L340.38-18.83L340.38-18.83Q341.72-17.13 342.33-15.13L342.33-15.13L342.33-15.13Q342.94-13.13 342.94-11.41ZM378.78-33.78L378.78-25.66L364.59-25.66L364.59 0L356.38 0L356.38-25.66L345.81-25.66L345.81-33.78L356.38-33.78L356.38-44.81L364.59-44.81L364.59-33.78L378.78-33.78ZM442.19-22.41L442.19-11.41L442.19-11.41Q442.19-9.31 441.66-7.64L441.66-7.64L441.66-7.64Q441.13-5.97 440.25-4.70L440.25-4.70L440.25-4.70Q439.38-3.44 438.22-2.55L438.22-2.55L438.22-2.55Q437.06-1.66 435.80-1.09L435.80-1.09L435.80-1.09Q434.53-0.53 433.25-0.27L433.25-0.27L433.25-0.27Q431.97 0 430.81 0L430.81 0L416.16 0L416.16-8.13L430.81-8.13L430.81-8.13Q432.44-8.13 433.25-8.97L433.25-8.97L433.25-8.97Q434.06-9.81 434.06-11.41L434.06-11.41L434.06-22.34L434.06-22.34Q434.06-24.03 433.23-24.84L433.23-24.84L433.23-24.84Q432.41-25.66 430.81-25.66L430.81-25.66L416.22-25.66L416.22-25.66Q414.56-25.66 413.72-24.83L413.72-24.83L413.72-24.83Q412.88-24 412.88-22.41L412.88-22.41L412.88 10.56L404.75 10.56L404.75-22.41L404.75-22.41Q404.75-24.50 405.28-26.16L405.28-26.16L405.28-26.16Q405.81-27.81 406.70-29.08L406.70-29.08L406.70-29.08Q407.59-30.34 408.75-31.23L408.75-31.23L408.75-31.23Q409.91-32.13 411.17-32.69L411.17-32.69L411.17-32.69Q412.44-33.25 413.73-33.52L413.73-33.52L413.73-33.52Q415.03-33.78 416.16-33.78L416.16-33.78L430.81-33.78L430.81-33.78Q432.91-33.78 434.56-33.25L434.56-33.25L434.56-33.25Q436.22-32.72 437.48-31.84L437.48-31.84L437.48-31.84Q438.75-30.97 439.64-29.81L439.64-29.81L439.64-29.81Q440.53-28.66 441.09-27.39L441.09-27.39L441.09-27.39Q441.66-26.13 441.92-24.84L441.92-24.84L441.92-24.84Q442.19-23.56 442.19-22.41L442.19-22.41ZM484-22.59L484-11.19L484-11.19Q484-9.50 483.41-7.55L483.41-7.55L483.41-7.55Q482.81-5.59 481.48-3.92L481.48-3.92L481.48-3.92Q480.16-2.25 478.02-1.13L478.02-1.13L478.02-1.13Q475.88 0 472.81 0L472.81 0L458.16 0L458.16 0Q456.47 0 454.52-0.59L454.52-0.59L454.52-0.59Q452.56-1.19 450.89-2.52L450.89-2.52L450.89-2.52Q449.22-3.84 448.09-5.98L448.09-5.98L448.09-5.98Q446.97-8.13 446.97-11.19L446.97-11.19L446.97-11.19Q446.97-12.88 447.56-14.84L447.56-14.84L447.56-14.84Q448.16-16.81 449.48-18.48L449.48-18.48L449.48-18.48Q450.81-20.16 452.95-21.28L452.95-21.28L452.95-21.28Q455.09-22.41 458.16-22.41L458.16-22.41L472.81-22.41L472.81-14.66L458.16-14.66L458.16-14.66Q456.50-14.66 455.59-13.64L455.59-13.64L455.59-13.64Q454.69-12.63 454.69-11.13L454.69-11.13L454.69-11.13Q454.69-9.53 455.73-8.64L455.73-8.64L455.73-8.64Q456.78-7.75 458.22-7.75L458.22-7.75L472.81-7.75L472.81-7.75Q474.47-7.75 475.38-8.75L475.38-8.75L475.38-8.75Q476.28-9.75 476.28-11.25L476.28-11.25L476.28-22.59L476.28-22.59Q476.28-24.19 475.30-25.13L475.30-25.13L475.30-25.13Q474.31-26.06 472.81-26.06L472.81-26.06L454.97-26.06L454.97-33.78L472.81-33.78L472.81-33.78Q474.50-33.78 476.45-33.19L476.45-33.19L476.45-33.19Q478.41-32.59 480.08-31.27L480.08-31.27L480.08-31.27Q481.75-29.94 482.88-27.80L482.88-27.80L482.88-27.80Q484-25.66 484-22.59L484-22.59ZM523.59-11.41L523.59-11.41L523.59-11.41Q523.59-9.31 523.06-7.64L523.06-7.64L523.06-7.64Q522.53-5.97 521.66-4.70L521.66-4.70L521.66-4.70Q520.78-3.44 519.63-2.55L519.63-2.55L519.63-2.55Q518.47-1.66 517.20-1.09L517.20-1.09L517.20-1.09Q515.94-0.53 514.64-0.27L514.64-0.27L514.64-0.27Q513.34 0 512.19 0L512.19 0L490.19 0L490.19-8.13L512.13-8.13L512.13-8.13Q513.78-8.13 514.63-8.97L514.63-8.97L514.63-8.97Q515.47-9.81 515.47-11.41L515.47-11.41L515.47-11.41Q515.31-14.66 512.19-14.66L512.19-14.66L499.59-14.66L499.59-14.66Q496.91-14.66 495.03-15.59L495.03-15.59L495.03-15.59Q493.16-16.53 491.98-17.94L491.98-17.94L491.98-17.94Q490.81-19.34 490.30-20.97L490.30-20.97L490.30-20.97Q489.78-22.59 489.78-24L489.78-24L489.78-24Q489.78-26.72 490.75-28.58L490.75-28.58L490.75-28.58Q491.72-30.44 493.19-31.59L493.19-31.59L493.19-31.59Q494.66-32.75 496.38-33.27L496.38-33.27L496.38-33.27Q498.09-33.78 499.59-33.78L499.59-33.78L519.56-33.78L519.56-25.66L499.66-25.66L499.66-25.66Q499.03-25.66 498.67-25.52L498.67-25.52L498.67-25.52Q498.31-25.38 498.14-25.14L498.14-25.14L498.14-25.14Q497.97-24.91 497.94-24.64L497.94-24.64L497.94-24.64Q497.91-24.38 497.91-24.13L497.91-24.13L497.91-24.13Q497.94-23.63 498.09-23.34L498.09-23.34L498.09-23.34Q498.25-23.06 498.48-22.94L498.48-22.94L498.48-22.94Q498.72-22.81 499.02-22.80L499.02-22.80L499.02-22.80Q499.31-22.78 499.59-22.78L499.59-22.78L512.19-22.78L512.19-22.78Q515.31-22.78 517.50-21.66L517.50-21.66L517.50-21.66Q519.69-20.53 521.03-18.83L521.03-18.83L521.03-18.83Q522.38-17.13 522.98-15.13L522.98-15.13L522.98-15.13Q523.59-13.13 523.59-11.41ZM561.94-11.41L561.94-11.41L561.94-11.41Q561.94-9.31 561.41-7.64L561.41-7.64L561.41-7.64Q560.88-5.97 560-4.70L560-4.70L560-4.70Q559.13-3.44 557.97-2.55L557.97-2.55L557.97-2.55Q556.81-1.66 555.55-1.09L555.55-1.09L555.55-1.09Q554.28-0.53 552.98-0.27L552.98-0.27L552.98-0.27Q551.69 0 550.53 0L550.53 0L528.53 0L528.53-8.13L550.47-8.13L550.47-8.13Q552.13-8.13 552.97-8.97L552.97-8.97L552.97-8.97Q553.81-9.81 553.81-11.41L553.81-11.41L553.81-11.41Q553.66-14.66 550.53-14.66L550.53-14.66L537.94-14.66L537.94-14.66Q535.25-14.66 533.38-15.59L533.38-15.59L533.38-15.59Q531.50-16.53 530.33-17.94L530.33-17.94L530.33-17.94Q529.16-19.34 528.64-20.97L528.64-20.97L528.64-20.97Q528.13-22.59 528.13-24L528.13-24L528.13-24Q528.13-26.72 529.09-28.58L529.09-28.58L529.09-28.58Q530.06-30.44 531.53-31.59L531.53-31.59L531.53-31.59Q533-32.75 534.72-33.27L534.72-33.27L534.72-33.27Q536.44-33.78 537.94-33.78L537.94-33.78L557.91-33.78L557.91-25.66L538-25.66L538-25.66Q537.38-25.66 537.02-25.52L537.02-25.52L537.02-25.52Q536.66-25.38 536.48-25.14L536.48-25.14L536.48-25.14Q536.31-24.91 536.28-24.64L536.28-24.64L536.28-24.64Q536.25-24.38 536.25-24.13L536.25-24.13L536.25-24.13Q536.28-23.63 536.44-23.34L536.44-23.34L536.44-23.34Q536.59-23.06 536.83-22.94L536.83-22.94L536.83-22.94Q537.06-22.81 537.36-22.80L537.36-22.80L537.36-22.80Q537.66-22.78 537.94-22.78L537.94-22.78L550.53-22.78L550.53-22.78Q553.66-22.78 555.84-21.66L555.84-21.66L555.84-21.66Q558.03-20.53 559.38-18.83L559.38-18.83L559.38-18.83Q560.72-17.13 561.33-15.13L561.33-15.13L561.33-15.13Q561.94-13.13 561.94-11.41ZM603.97-22.59L603.97-22.59L603.97-22.59Q603.97-20.91 603.38-18.95L603.38-18.95L603.38-18.95Q602.78-17 601.45-15.33L601.45-15.33L601.45-15.33Q600.13-13.66 597.98-12.53L597.98-12.53L597.98-12.53Q595.84-11.41 592.78-11.41L592.78-11.41L578.13-11.41L578.13-19.13L592.78-19.13L592.78-19.13Q594.44-19.13 595.34-20.14L595.34-20.14L595.34-20.14Q596.25-21.16 596.25-22.66L596.25-22.66L596.25-22.66Q596.25-24.25 595.23-25.16L595.23-25.16L595.23-25.16Q594.22-26.06 592.78-26.06L592.78-26.06L578.13-26.06L578.13-26.06Q576.47-26.06 575.56-25.05L575.56-25.05L575.56-25.05Q574.66-24.03 574.66-22.53L574.66-22.53L574.66-11.19L574.66-11.19Q574.66-9.56 575.67-8.66L575.67-8.66L575.67-8.66Q576.69-7.75 578.19-7.75L578.19-7.75L592.78-7.75L592.78 0L578.13 0L578.13 0Q576.44 0 574.48-0.59L574.48-0.59L574.48-0.59Q572.53-1.19 570.86-2.52L570.86-2.52L570.86-2.52Q569.19-3.84 568.06-5.98L568.06-5.98L568.06-5.98Q566.94-8.13 566.94-11.19L566.94-11.19L566.94-22.59L566.94-22.59Q566.94-24.28 567.53-26.23L567.53-26.23L567.53-26.23Q568.13-28.19 569.45-29.86L569.45-29.86L569.45-29.86Q570.78-31.53 572.92-32.66L572.92-32.66L572.92-32.66Q575.06-33.78 578.13-33.78L578.13-33.78L592.78-33.78L592.78-33.78Q594.47-33.78 596.42-33.19L596.42-33.19L596.42-33.19Q598.38-32.59 600.05-31.27L600.05-31.27L600.05-31.27Q601.72-29.94 602.84-27.80L602.84-27.80L602.84-27.80Q603.97-25.66 603.97-22.59ZM646.50-48.06L646.50-11.41L646.50-11.41Q646.50-9.31 645.97-7.64L645.97-7.64L645.97-7.64Q645.44-5.97 644.56-4.70L644.56-4.70L644.56-4.70Q643.69-3.44 642.53-2.55L642.53-2.55L642.53-2.55Q641.38-1.66 640.11-1.09L640.11-1.09L640.11-1.09Q638.84-0.53 637.55-0.27L637.55-0.27L637.55-0.27Q636.25 0 635.09 0L635.09 0L620.44 0L620.44 0Q618.34 0 616.69-0.53L616.69-0.53L616.69-0.53Q615.03-1.06 613.77-1.95L613.77-1.95L613.77-1.95Q612.50-2.84 611.61-4L611.61-4L611.61-4Q610.72-5.16 610.16-6.42L610.16-6.42L610.16-6.42Q609.59-7.69 609.33-8.98L609.33-8.98L609.33-8.98Q609.06-10.28 609.06-11.41L609.06-11.41L609.06-22.41L609.06-22.41Q609.06-25.53 610.20-27.70L610.20-27.70L610.20-27.70Q611.34-29.88 613.05-31.23L613.05-31.23L613.05-31.23Q614.75-32.59 616.75-33.19L616.75-33.19L616.75-33.19Q618.75-33.78 620.44-33.78L620.44-33.78L635.09-33.78L635.09-25.66L620.50-25.66L620.50-25.66Q618.88-25.66 618.03-24.83L618.03-24.83L618.03-24.83Q617.19-24 617.19-22.41L617.19-22.41L617.19-11.47L617.19-11.47Q617.19-9.81 618.02-8.97L618.02-8.97L618.02-8.97Q618.84-8.13 620.44-8.13L620.44-8.13L635.09-8.13L635.09-8.13Q636.75-8.13 637.56-8.97L637.56-8.97L637.56-8.97Q638.38-9.81 638.38-11.41L638.38-11.41L638.38-48.06L646.50-48.06Z" fill="url(#editing-glowing-gradient)"></path></g></g><style>text {
  font-size: 64px;
  font-family: Arial Black;
  dominant-baseline: central;
  text-anchor: middle;
}</style></svg>