<svg width="403.17998046875px" height="131.60498046875px" xmlns="http://www.w3.org/2000/svg" viewBox="48.410009765625006 9.197509765625 403.17998046875 131.60498046875" style="background: rgb(46, 53, 61);" preserveAspectRatio="xMidYMid"><defs><linearGradient id="editing-glowing-gradient" x1="0.8715724127386971" x2="0.12842758726130288" y1="0.8345653031794291" y2="0.16543469682057088"><stop offset="0" stop-color="#fe5dfd"></stop><stop offset="1" stop-color="#1eabff"></stop></linearGradient><filter id="editing-glowing" x="-100%" y="-100%" width="300%" height="300%"><feGaussianBlur in="SourceGraphic" result="blur" stdDeviation="10"></feGaussianBlur><feMerge><feMergeNode in="blur"></feMergeNode><feMergeNode in="SourceGraphic"></feMergeNode></feMerge></filter></defs><g filter="url(#editing-glowing)"><g transform="translate(109.20500183105469, 99.03000068664551)"><path d="M45.22-44.81L45.22-36.69L27.31-36.69L27.31 0L19.19 0L19.19-36.69L1.25-36.69L1.25-44.81L45.22-44.81ZM85.53-33.78L85.53-4.09L85.53-4.09Q85.53-3.22 85.22-2.47L85.22-2.47L85.22-2.47Q84.91-1.72 84.36-1.17L84.36-1.17L84.36-1.17Q83.81-0.63 83.08-0.31L83.08-0.31L83.08-0.31Q82.34 0 81.50 0L81.50 0L63.13 0L63.13 0Q61.63 0 59.92-0.34L59.92-0.34L59.92-0.34Q58.22-0.69 56.56-1.45L56.56-1.45L56.56-1.45Q54.91-2.22 53.36-3.39L53.36-3.39L53.36-3.39Q51.81-4.56 50.66-6.23L50.66-6.23L50.66-6.23Q49.50-7.91 48.80-10.09L48.80-10.09L48.80-10.09Q48.09-12.28 48.09-15.03L48.09-15.03L48.09-33.78L56.22-33.78L56.22-15.03L56.22-15.03Q56.22-13.44 56.77-12.17L56.77-12.17L56.77-12.17Q57.31-10.91 58.25-10L58.25-10L58.25-10Q59.19-9.09 60.45-8.61L60.45-8.61L60.45-8.61Q61.72-8.13 63.19-8.13L63.19-8.13L77.41-8.13L77.41-33.78L85.53-33.78ZM123.88-33.78L123.88-25.66L109.69-25.66L109.69 0L101.47 0L101.47-25.66L90.91-25.66L90.91-33.78L101.47-33.78L101.47-44.81L109.69-44.81L109.69-33.78L123.88-33.78ZM165.84-22.41L165.84-11.41L165.84-11.41Q165.84-9.31 165.31-7.64L165.31-7.64L165.31-7.64Q164.78-5.97 163.91-4.70L163.91-4.70L163.91-4.70Q163.03-3.44 161.88-2.55L161.88-2.55L161.88-2.55Q160.72-1.66 159.45-1.09L159.45-1.09L159.45-1.09Q158.19-0.53 156.89-0.27L156.89-0.27L156.89-0.27Q155.59 0 154.44 0L154.44 0L139.78 0L139.78 0Q138.09 0 136.09-0.59L136.09-0.59L136.09-0.59Q134.09-1.19 132.39-2.55L132.39-2.55L132.39-2.55Q130.69-3.91 129.55-6.08L129.55-6.08L129.55-6.08Q128.41-8.25 128.41-11.41L128.41-11.41L128.41-22.41L128.41-22.41Q128.41-25.53 129.55-27.70L129.55-27.70L129.55-27.70Q130.69-29.88 132.39-31.23L132.39-31.23L132.39-31.23Q134.09-32.59 136.09-33.19L136.09-33.19L136.09-33.19Q138.09-33.78 139.78-33.78L139.78-33.78L154.44-33.78L154.44-33.78Q157.56-33.78 159.75-32.66L159.75-32.66L159.75-32.66Q161.94-31.53 163.28-29.83L163.28-29.83L163.28-29.83Q164.63-28.13 165.23-26.13L165.23-26.13L165.23-26.13Q165.84-24.13 165.84-22.41L165.84-22.41ZM157.72-11.41L157.72-22.34L157.72-22.34Q157.72-24.03 156.88-24.84L156.88-24.84L156.88-24.84Q156.03-25.66 154.44-25.66L154.44-25.66L139.84-25.66L139.84-25.66Q138.22-25.66 137.38-24.83L137.38-24.83L137.38-24.83Q136.53-24 136.53-22.41L136.53-22.41L136.53-11.41L136.53-11.41Q136.53-9.81 137.38-8.97L137.38-8.97L137.38-8.97Q138.22-8.13 139.84-8.13L139.84-8.13L154.44-8.13L154.44-8.13Q156.09-8.13 156.91-8.97L156.91-8.97L156.91-8.97Q157.72-9.81 157.72-11.41L157.72-11.41ZM202.31-33.78L202.31-25.66L184.03-25.66L184.03-25.66Q182.38-25.66 181.53-24.83L181.53-24.83L181.53-24.83Q180.69-24 180.69-22.41L180.69-22.41L180.69 0L172.56 0L172.56-22.41L172.56-22.41Q172.56-24.50 173.09-26.16L173.09-26.16L173.09-26.16Q173.63-27.81 174.52-29.08L174.52-29.08L174.52-29.08Q175.41-30.34 176.56-31.23L176.56-31.23L176.56-31.23Q177.72-32.13 178.98-32.69L178.98-32.69L178.98-32.69Q180.25-33.25 181.55-33.52L181.55-33.52L181.55-33.52Q182.84-33.78 183.97-33.78L183.97-33.78L202.31-33.78ZM215.91-48.06L215.91-40.72L207.78-40.72L207.78-48.06L215.91-48.06ZM215.91-33.78L215.91 0L207.78 0L207.78-33.78L215.91-33.78ZM258.56-22.59L258.56-11.19L258.56-11.19Q258.56-9.50 257.97-7.55L257.97-7.55L257.97-7.55Q257.38-5.59 256.05-3.92L256.05-3.92L256.05-3.92Q254.72-2.25 252.58-1.13L252.58-1.13L252.58-1.13Q250.44 0 247.38 0L247.38 0L232.72 0L232.72 0Q231.03 0 229.08-0.59L229.08-0.59L229.08-0.59Q227.13-1.19 225.45-2.52L225.45-2.52L225.45-2.52Q223.78-3.84 222.66-5.98L222.66-5.98L222.66-5.98Q221.53-8.13 221.53-11.19L221.53-11.19L221.53-11.19Q221.53-12.88 222.13-14.84L222.13-14.84L222.13-14.84Q222.72-16.81 224.05-18.48L224.05-18.48L224.05-18.48Q225.38-20.16 227.52-21.28L227.52-21.28L227.52-21.28Q229.66-22.41 232.72-22.41L232.72-22.41L247.38-22.41L247.38-14.66L232.72-14.66L232.72-14.66Q231.06-14.66 230.16-13.64L230.16-13.64L230.16-13.64Q229.25-12.63 229.25-11.13L229.25-11.13L229.25-11.13Q229.25-9.53 230.30-8.64L230.30-8.64L230.30-8.64Q231.34-7.75 232.78-7.75L232.78-7.75L247.38-7.75L247.38-7.75Q249.03-7.75 249.94-8.75L249.94-8.75L249.94-8.75Q250.84-9.75 250.84-11.25L250.84-11.25L250.84-22.59L250.84-22.59Q250.84-24.19 249.86-25.13L249.86-25.13L249.86-25.13Q248.88-26.06 247.38-26.06L247.38-26.06L229.53-26.06L229.53-33.78L247.38-33.78L247.38-33.78Q249.06-33.78 251.02-33.19L251.02-33.19L251.02-33.19Q252.97-32.59 254.64-31.27L254.64-31.27L254.64-31.27Q256.31-29.94 257.44-27.80L257.44-27.80L257.44-27.80Q258.56-25.66 258.56-22.59L258.56-22.59ZM280.34-8.13L280.34 0L276.72 0L276.72 0Q274.97 0 272.98-0.59L272.98-0.59L272.98-0.59Q271-1.19 269.28-2.55L269.28-2.55L269.28-2.55Q267.56-3.91 266.44-6.08L266.44-6.08L266.44-6.08Q265.31-8.25 265.31-11.41L265.31-11.41L265.31-48.06L273.44-48.06L273.44-11.41L273.44-11.41Q273.44-9.91 274.38-9.02L274.38-9.02L274.38-9.02Q275.31-8.13 276.72-8.13L276.72-8.13L280.34-8.13Z" fill="url(#editing-glowing-gradient)"></path></g></g><style>text {
  font-size: 64px;
  font-family: Arial Black;
  dominant-baseline: central;
  text-anchor: middle;
}</style></svg>